<svg width="12" height="20" viewBox="0 0 12 20" fill="none" xmlns="http://www.w3.org/2000/svg">
<path d="M5.72 19.7H7.06V17.18C10 16.98 11.74 15.12 11.74 12.78C11.74 10.08 10.02 9.08 7.06 8.6V4.5C8.28 4.7 8.9 5.4 9.12 6.62H11.48C11.24 4.14 9.64 2.8 7.06 2.56V0.74H5.72V2.54C3 2.72 1.22 4.38 1.22 6.6C1.22 9.14 2.76 10.22 5.72 10.72V15.22C3.82 14.98 3.38 13.88 3.22 12.58H0.74C0.94 15 2.3 16.94 5.72 17.18V19.7ZM9.28 13.02C9.28 14.2 8.4 15.04 7.06 15.22V10.94C8.8 11.32 9.28 11.88 9.28 13.02ZM3.58 6.38C3.58 5.38 4.34 4.6 5.72 4.44V8.38C3.96 8.02 3.58 7.42 3.58 6.38Z" fill="#4B4B60"/>
</svg>
